# xmcd
#
# Track frame offsets:
# 182
# 16062
# 32405
# 53377
# 69635
# 88115
# 103585
# 116627
# 131270
# 148382
# 165870
# 181825
# 197872
# 214227
# 230227
# 249240
#
# Disc length: 3587 seconds
#
#
# Revision: 3
# Processed by: cddbd v1.5.1PL2 Copyright (c) Steve Scherf et al.
# Submitted via: FreeRIP 2.931 
#
DISCID=d50e0110
DTITLE=Shania Twain - Come On Over
DYEAR=1998
DGENRE=Country
TTITLE0=You're Still The One
TTITLE1=When
TTITLE2=From This Moment On
TTITLE3=Black Eyes, Blue Tears
TTITLE4=I Won't Leave You Lonely
TTITLE5=I'm Holdin' On To Love (To Save My Life)
TTITLE6=Come On Over
TTITLE7=You've Got A Way
TTITLE8=Whatever You Do! Don't!
TTITLE9=Man! I Feel Like A Woman!
TTITLE10=Love Gets Me Every Time
TTITLE11=Don't Be Stupid (You Know I Love You)
TTITLE12=That Don't Impress Me Much
TTITLE13=Honey, I'm Home
TTITLE14=If You Wanna Touch Her, Ask!
TTITLE15=Rock This Country!
EXTD=Produced by Robert John "Mutt" Lange\nMercury Records, a PolyGram company
EXTT0=
EXTT1=
EXTT2=
EXTT3=
EXTT4=
EXTT5=
EXTT6=
EXTT7=
EXTT8=
EXTT9=
EXTT10=
EXTT11=
EXTT12=
EXTT13=
EXTT14=
EXTT15=
PLAYORDER=
